<?xml version="1.0" encoding="UTF-8"?>
<svg xmlns="http://www.w3.org/2000/svg" id="Layer_1" data-name="Layer 1" viewBox="0 0 24 24">
  <path d="M22.208,5.821c-.289-1.155-1.212-2.036-2.354-2.245-.333-.061-.668-.117-1.005-.17v-.932c0-.552-.448-1-1-1s-1,.448-1,1v.667c-3.193-.345-6.504-.345-9.697,0v-.667c0-.552-.448-1-1-1s-1,.448-1,1v.932c-.337,.053-.672,.109-1.005,.17-1.141,.208-2.065,1.089-2.354,2.244-1.062,4.246-1.062,9.521,0,13.768,.289,1.155,1.213,2.036,2.354,2.244,2.532,.462,5.193,.694,7.854,.694s5.321-.231,7.854-.694c1.141-.208,2.065-1.089,2.354-2.244,1.062-4.246,1.062-9.521,0-13.767Zm-17.702-.277c2.417-.441,4.955-.662,7.494-.662s5.078,.221,7.494,.662c.371,.067,.674,.367,.773,.762,.086,.345,.164,.699,.235,1.06H3.498c.071-.361,.149-.715,.235-1.06,.099-.395,.402-.694,.773-.762Zm15.761,13.559c-.099,.395-.402,.694-.773,.762-4.833,.883-10.155,.883-14.988,0-.371-.067-.674-.367-.773-.762-.732-2.925-.912-6.494-.543-9.737H20.81c.37,3.244,.189,6.812-.543,9.737Z"/>
  <g>
    <circle cx="7.691" cy="13.002" r="1"/>
    <circle cx="7.691" cy="16.736" r="1"/>
    <circle cx="12.005" cy="12.994" r="1"/>
    <circle cx="12.005" cy="16.728" r="1"/>
    <circle cx="16.311" cy="12.994" r="1"/>
    <circle cx="16.311" cy="16.728" r="1"/>
  </g>
</svg>
